<?xml version="1.0" standalone="no"?>
<!DOCTYPE svg PUBLIC "-//W3C//DTD SVG 20010904//EN"
 "http://www.w3.org/TR/2001/REC-SVG-20010904/DTD/svg10.dtd">
<svg version="1.0" xmlns="http://www.w3.org/2000/svg"
 width="5000.000000pt" height="5000.000000pt" viewBox="0 0 5000.000000 5000.000000"
 preserveAspectRatio="xMidYMid meet">
<metadata>
Created by potrace 1.16, written by Peter Selinger 2001-2019
</metadata>
<g transform="translate(0.000000,5000.000000) scale(0.100000,-0.100000)"
fill="#000000" stroke="none">
<path d="M30925 42579 c-66 -4 -138 -9 -160 -13 -22 -3 -71 -8 -110 -11 -172
-15 -583 -91 -815 -151 -263 -69 -686 -210 -860 -288 -19 -8 -84 -36 -145 -62
-178 -75 -567 -272 -728 -368 -564 -338 -942 -629 -1367 -1055 -189 -189 -268
-275 -432 -472 l-37 -44 -26 27 c-122 130 -389 285 -590 343 -191 55 -244 59
-715 60 -453 0 -515 -4 -685 -46 -200 -50 -409 -154 -553 -277 l-53 -45 -32
39 c-69 85 -198 225 -322 353 -1031 1056 -2496 1785 -3883 1932 -669 71 -1246
3 -1782 -210 -167 -67 -417 -219 -569 -346 -216 -181 -372 -374 -504 -625
-327 -617 -406 -1517 -227 -2580 38 -229 101 -524 130 -612 149 -448 536 -756
1015 -808 72 -8 2275 -10 7740 -8 7338 3 7643 4 7725 21 260 56 461 167 640
353 100 104 139 160 205 291 71 142 107 281 169 643 76 442 98 676 102 1075 2
297 -2 400 -27 620 -60 538 -219 987 -466 1314 -76 100 -288 312 -388 387
-333 251 -716 413 -1185 503 -318 61 -699 82 -1065 60z"/>
<path d="M12315 35603 c-701 -59 -1360 -432 -1737 -983 -210 -306 -329 -619
-373 -979 -11 -96 -13 -388 -12 -1691 3 -1443 4 -1583 20 -1675 82 -470 263
-834 577 -1159 190 -197 359 -320 595 -436 212 -104 387 -157 675 -206 25 -4
2539 -9 5588 -11 l5542 -3 0 3575 0 3575 -5417 -2 c-2980 -1 -5436 -3 -5458
-5z"/>
<path d="M26750 32035 l0 -3575 5523 0 c5972 0 5629 -3 5871 51 586 130 1085
496 1389 1020 113 194 190 396 244 640 l27 124 6 1615 c4 1191 2 1644 -7 1725
-56 533 -326 1038 -749 1401 -353 303 -766 486 -1249 554 -124 17 -367 18
-5592 19 l-5463 1 0 -3575z"/>
<path d="M12030 18493 c0 -7265 2 -8401 15 -8488 95 -657 463 -1234 1025
-1610 343 -229 696 -359 1123 -415 158 -20 180 -20 4798 -20 l4639 0 0 9460 0
9460 -5800 0 -5800 0 0 -8387z"/>
<path d="M26440 17420 l0 -9460 4588 0 c4861 0 4723 -1 4957 45 322 62 656
194 911 361 634 412 1018 1041 1084 1774 7 77 10 2836 10 8428 l0 8312 -5775
0 -5775 0 0 -9460z"/>
</g>
</svg>
